<?xml version="1.0" encoding="utf-8"?>
<!-- Generator: Adobe Illustrator 28.1.0, SVG Export Plug-In . SVG Version: 6.00 Build 0)  -->
<svg version="1.1" id="Layer_1" xmlns="http://www.w3.org/2000/svg" xmlns:xlink="http://www.w3.org/1999/xlink" x="0px" y="0px"
	 viewBox="0 0 116.21 24.01" style="enable-background:new 0 0 116.21 24.01;" xml:space="preserve">
<style type="text/css">
	.st0{fill:url(#SVGID_1_);}
	.st1{fill:url(#SVGID_00000026152148697654649620000016357607123036442021_);}
	.st2{fill:#001259;}
</style>
<linearGradient id="SVGID_1_" gradientUnits="userSpaceOnUse" x1="18.3104" y1="-5.7374" x2="-2.2976" y2="21.7399">
	<stop  offset="0.23" style="stop-color:#00DFD9"/>
	<stop  offset="0.3021" style="stop-color:#00D7DC"/>
	<stop  offset="0.4168" style="stop-color:#00C0E3"/>
	<stop  offset="0.5598" style="stop-color:#009AEF"/>
	<stop  offset="0.7186" style="stop-color:#0068FF"/>
</linearGradient>
<polygon class="st0" points="8,0 0,8 0,16.01 8,16.01 8,8 16.01,8 16.01,0 "/>
<linearGradient id="SVGID_00000128454682814906965310000017672526564308803730_" gradientUnits="userSpaceOnUse" x1="741.314" y1="2494.4443" x2="720.7061" y2="2521.9216" gradientTransform="matrix(-1 0 0 -1 747.0162 2524.1943)">
	<stop  offset="0.23" style="stop-color:#00DFD9"/>
	<stop  offset="0.3021" style="stop-color:#00D7DC"/>
	<stop  offset="0.4168" style="stop-color:#00C0E3"/>
	<stop  offset="0.5598" style="stop-color:#009AEF"/>
	<stop  offset="0.7186" style="stop-color:#0068FF"/>
</linearGradient>
<polygon style="fill:url(#SVGID_00000128454682814906965310000017672526564308803730_);" points="16.01,24.01 24.01,16.01 24.01,8 
	16.01,8 16.01,16.01 8,16.01 8,24.01 "/>
<path class="st2" d="M58.91,15.77h-2.48v4.26H51.9V3.99h7.33c4.38,0,7.13,2.27,7.13,5.94c0,2.36-1.15,4.1-3.14,5.07l3.46,5.04h-4.86
	L58.91,15.77z M58.96,7.57h-2.52v4.7h2.52c1.88,0,2.82-0.87,2.82-2.34C61.78,8.44,60.84,7.57,58.96,7.57z"/>
<path class="st2" d="M79.02,11.68h3.86v6.39c-1.79,1.28-4.23,1.96-6.48,1.96c-4.91,0-8.51-3.33-8.51-8.02c0-4.69,3.59-8.02,8.6-8.02
	c2.89,0,5.22,0.99,6.74,2.82l-2.78,2.51c-1.06-1.17-2.27-1.72-3.75-1.72c-2.65,0-4.41,1.74-4.41,4.41c0,2.6,1.76,4.41,4.36,4.41
	c0.82,0,1.59-0.15,2.36-0.51V11.68z"/>
<path class="st2" d="M84.59,12.01c0-4.63,3.64-8.02,8.57-8.02s8.57,3.39,8.57,8.02s-3.64,8.02-8.57,8.02S84.59,16.64,84.59,12.01z
	 M97.33,12.01c0-2.67-1.83-4.41-4.16-4.41S89,9.35,89,12.01s1.83,4.41,4.17,4.41S97.33,14.68,97.33,12.01z"/>
<polygon class="st2" points="50.67,20.03 43.57,3.99 39.1,3.99 32.02,20.03 37.13,20.03 41.3,9.39 45.47,20.03 "/>
<g>
	<path class="st2" d="M109.77,7.35c-1.35,0-1.97,0.53-1.99,1.28c-0.02,0.8,0.71,1.24,2.17,1.55l1.28,0.27
		c3.36,0.73,4.87,2.37,4.87,4.78c0,3.05-2.34,4.8-6.28,4.78c-4.05,0.02-6.68-1.75-6.73-5.58h3.94c0.07,1.44,1.06,2.19,2.7,2.21
		c1.42-0.02,2.17-0.6,2.17-1.42c0-0.75-0.64-1.19-2.39-1.59l-1.55-0.35c-2.77-0.58-4.47-1.95-4.47-4.38c0-2.94,2.61-4.93,6.28-4.91
		c3.76-0.02,6.11,1.99,6.15,5.04h-3.98C111.87,7.97,111.18,7.35,109.77,7.35z"/>
</g>
</svg>
